<?xml version="1.0" encoding="UTF-8" standalone="no"?>
<!DOCTYPE svg PUBLIC "-//W3C//DTD SVG 1.1//EN" "http://www.w3.org/Graphics/SVG/1.1/DTD/svg11.dtd">
<svg xmlns="http://www.w3.org/2000/svg" xmlns:xlink="http://www.w3.org/1999/xlink" version="1.1" width="208.611pt" height="199.566pt" viewBox="0 0 208.611 199.566">
<g enable-background="new">
<path transform="matrix(1,0,0,-1,14.141,183.068)" d="M 0 0 L 194.27368 0 L 194.27368 161.39575 L 0 161.39575 Z " fill="#fff7e8"/>
<clipPath id="cp0">
<path transform="matrix(1,0,0,-1,14.141,183.068)" d="M 0 -141.76258 L 194.27368 -141.76258 L 194.27368 303.15834 L 0 303.15834 "/>
</clipPath>
<g clip-path="url(#cp0)">
<path transform="matrix(1,0,0,-1,14.141,183.068)" stroke-width=".3985" stroke-linecap="butt" stroke-dasharray="2.98883,2.98883" stroke-miterlimit="10" stroke-linejoin="miter" fill="none" stroke="#cbcbcb" d="M 19.42737 0 L 19.42737 161.39575 M 58.2821 0 L 58.2821 161.39575 M 97.13684 0 L 97.13684 161.39575 M 135.99158 0 L 135.99158 161.39575 M 174.84632 0 L 174.84632 161.39575 "/>
</g>
<clipPath id="cp1">
<path transform="matrix(1,0,0,-1,14.141,183.068)" d="M -141.7406 0 L -141.7406 161.39575 L 336.01429 161.39575 L 336.01429 0 "/>
</clipPath>
<g clip-path="url(#cp1)">
<path transform="matrix(1,0,0,-1,14.141,183.068)" stroke-width=".3985" stroke-linecap="butt" stroke-dasharray="2.98883,2.98883" stroke-miterlimit="10" stroke-linejoin="miter" fill="none" stroke="#cbcbcb" d="M 0 4.40169 L 194.27368 4.40169 M 0 33.74638 L 194.27368 33.74638 M 0 63.09106 L 194.27368 63.09106 M 0 92.43575 L 194.27368 92.43575 M 0 121.78043 L 194.27368 121.78043 M 0 151.1251 L 194.27368 151.1251 "/>
</g>
<clipPath id="cp2">
<path transform="matrix(1,0,0,-1,14.141,183.068)" d="M 0 -141.76258 L 194.27368 -141.76258 L 194.27368 303.15834 L 0 303.15834 "/>
</clipPath>
<g clip-path="url(#cp2)">
<path transform="matrix(1,0,0,-1,14.141,183.068)" stroke-width=".19925" stroke-linecap="butt" stroke-miterlimit="10" stroke-linejoin="miter" fill="none" stroke="#929292" d="M 19.42737 0 L 19.42737 4.25267 M 58.2821 0 L 58.2821 4.25267 M 97.13684 0 L 97.13684 4.25267 M 135.99158 0 L 135.99158 4.25267 M 174.84632 0 L 174.84632 4.25267 M 19.42737 161.39575 L 19.42737 157.14305 M 58.2821 161.39575 L 58.2821 157.14305 M 97.13684 161.39575 L 97.13684 157.14305 M 135.99158 161.39575 L 135.99158 157.14305 M 174.84632 161.39575 L 174.84632 157.14305 "/>
</g>
<clipPath id="cp3">
<path transform="matrix(1,0,0,-1,14.141,183.068)" d="M -141.7406 0 L -141.7406 161.39575 L 336.01429 161.39575 L 336.01429 0 "/>
</clipPath>
<g clip-path="url(#cp3)">
<path transform="matrix(1,0,0,-1,14.141,183.068)" stroke-width=".19925" stroke-linecap="butt" stroke-miterlimit="10" stroke-linejoin="miter" fill="none" stroke="#929292" d="M 0 4.40169 L 4.25201 4.40169 M 0 33.74638 L 4.25201 33.74638 M 0 63.09106 L 4.25201 63.09106 M 0 92.43575 L 4.25201 92.43575 M 0 121.78043 L 4.25201 121.78043 M 0 151.1251 L 4.25201 151.1251 M 194.27368 4.40169 L 190.02164 4.40169 M 194.27368 33.74638 L 190.02164 33.74638 M 194.27368 63.09106 L 190.02164 63.09106 M 194.27368 92.43575 L 190.02164 92.43575 M 194.27368 121.78043 L 190.02164 121.78043 M 194.27368 151.1251 L 190.02164 151.1251 "/>
</g>
<path transform="matrix(1,0,0,-1,14.141,183.068)" stroke-width=".3985" stroke-linecap="butt" stroke-miterlimit="10" stroke-linejoin="miter" fill="none" stroke="#000000" d="M 0 0 L 0 161.39575 L 194.27368 161.39575 L 194.27368 0 L 0 0 Z "/>
<text xml:space="preserve" transform="matrix(1 0 -0 1 0 199.566)" font-size="9.9626" font-family="CMSY10" font-style="italic"><tspan y="-6.171" x="27.897">L</tspan></text>
<text xml:space="preserve" transform="matrix(1 0 -0 1 0 199.566)" font-size="6.9738" font-family="CMR7"><tspan y="-4.677" x="34.769">1</tspan></text>
<text xml:space="preserve" transform="matrix(1 0 -0 1 0 199.566)" font-size="9.9626" font-family="CMSY10" font-style="italic"><tspan y="-6.171" x="57.349">L</tspan></text>
<text xml:space="preserve" transform="matrix(1 0 -0 1 0 199.566)" font-size="6.9738" font-family="CMMI7" font-style="italic"><tspan y="-4.677" x="64.22 67.783618 71.716838 75.475719 78.29313 83.21663">cosine</tspan></text>
<text xml:space="preserve" transform="matrix(1 0 -0 1 0 199.566)" font-size="9.9626" font-family="CMSY10" font-style="italic"><tspan y="-6.171" x="99.332">L</tspan></text>
<text xml:space="preserve" transform="matrix(1 0 -0 1 0 199.566)" font-size="6.9738" font-family="CMMI7" font-style="italic"><tspan y="-4.677" x="106.203 110.33847 114.25077 118.574527">grad</tspan></text>
<text xml:space="preserve" transform="matrix(1 0 -0 1 .000015258789 199.566)" font-size="9.9626" font-family="CMSY10" font-style="italic"><tspan y="-6.171" x="137.413">L</tspan></text>
<text xml:space="preserve" transform="matrix(1 0 -0 1 .000015258789 199.566)" font-size="6.9738" font-family="CMMI7" font-style="italic"><tspan y="-4.677" x="144.284 147.84761 151.78084 158.85227">comb</tspan></text>
<text xml:space="preserve" transform="matrix(1 0 -0 1 0 199.566)" font-size="9.9626" font-family="CMSY10" font-style="italic"><tspan y="-6.171" x="179.44">L</tspan></text>
<text xml:space="preserve" transform="matrix(1 0 -0 1 0 199.566)" font-size="6.9738" font-family="CMMI7" font-style="italic"><tspan y="-4.677" x="186.311 190.5441 195.4676">vnl</tspan></text>
<clipPath id="cp4">
<path transform="matrix(1,0,0,-1,14.141,183.068)" d="M 0 0 L 194.27368 0 L 194.27368 161.39575 L 0 161.39575 Z "/>
</clipPath>
<g clip-path="url(#cp4)">
<path transform="matrix(1,0,0,-1,14.141,183.068)" stroke-width="1.19553" stroke-linecap="butt" stroke-miterlimit="10" stroke-linejoin="miter" fill="none" stroke="#00b8eb" d="M 19.42737 12.93805 L 58.2821 12.86702 L 97.13684 19.0536 L 135.99158 20.27997 L 174.84632 18.52303 "/>
<path transform="matrix(1,0,0,-1,14.141,183.068)" stroke-width="1.19553" stroke-linecap="butt" stroke-miterlimit="10" stroke-linejoin="miter" fill="none" stroke="#ffa600" d="M 19.42737 120.93709 L 58.2821 108.40613 L 97.13684 135.03974 L 135.99158 133.33707 L 174.84632 152.08171 "/>
<path transform="matrix(1,0,0,-1,14.141,183.068)" stroke-width="1.19553" stroke-linecap="butt" stroke-miterlimit="10" stroke-linejoin="miter" fill="none" stroke="#800080" d="M 19.42737 22.2474 L 58.2821 25.04947 L 97.13684 36.42882 L 135.99158 40.79938 L 174.84632 39.15706 "/>
<path transform="matrix(1,0,0,-1,14.141,183.068)" stroke-width="1.19553" stroke-linecap="butt" stroke-miterlimit="10" stroke-linejoin="miter" fill="none" stroke="#ff008f" d="M 19.42737 84.55289 L 58.2821 80.31558 L 97.13684 91.75372 L 135.99158 94.01183 L 174.84632 97.98398 "/>
<path transform="matrix(1,0,0,-1,14.141,183.068)" stroke-width="1.19553" stroke-linecap="butt" stroke-miterlimit="10" stroke-linejoin="miter" fill="none" stroke="#e3d10a" d="M 19.42737 18.69518 L 58.2821 13.59784 L 97.13684 18.96768 L 135.99158 27.58412 L 174.84632 34.38454 "/>
</g>
<path transform="matrix(1,0,0,-1,14.141,183.068)" d="M 19.42737 14.73135 L 20.9804 12.0414 L 17.87433 12.0414 Z " fill="#00b8eb"/>
<path transform="matrix(1,0,0,-1,14.141,183.068)" stroke-width="1.19553" stroke-linecap="butt" stroke-miterlimit="10" stroke-linejoin="miter" fill="none" stroke="#00b8eb" d="M 19.42737 14.73135 L 20.9804 12.0414 L 17.87433 12.0414 Z "/>
<path transform="matrix(1,0,0,-1,14.141,183.068)" d="M 58.2821 14.66032 L 59.83513 11.97038 L 56.72906 11.97038 Z " fill="#00b8eb"/>
<path transform="matrix(1,0,0,-1,14.141,183.068)" stroke-width="1.19553" stroke-linecap="butt" stroke-miterlimit="10" stroke-linejoin="miter" fill="none" stroke="#00b8eb" d="M 58.2821 14.66032 L 59.83513 11.97038 L 56.72906 11.97038 Z "/>
<path transform="matrix(1,0,0,-1,14.141,183.068)" d="M 97.13684 20.84691 L 98.68987 18.15697 L 95.5838 18.15697 Z " fill="#00b8eb"/>
<path transform="matrix(1,0,0,-1,14.141,183.068)" stroke-width="1.19553" stroke-linecap="butt" stroke-miterlimit="10" stroke-linejoin="miter" fill="none" stroke="#00b8eb" d="M 97.13684 20.84691 L 98.68987 18.15697 L 95.5838 18.15697 Z "/>
<path transform="matrix(1,0,0,-1,14.141,183.068)" d="M 135.99158 22.07326 L 137.5446 19.38332 L 134.43854 19.38332 Z " fill="#00b8eb"/>
<path transform="matrix(1,0,0,-1,14.141,183.068)" stroke-width="1.19553" stroke-linecap="butt" stroke-miterlimit="10" stroke-linejoin="miter" fill="none" stroke="#00b8eb" d="M 135.99158 22.07326 L 137.5446 19.38332 L 134.43854 19.38332 Z "/>
<path transform="matrix(1,0,0,-1,14.141,183.068)" d="M 174.84632 20.31633 L 176.39934 17.62639 L 173.29328 17.62639 Z " fill="#00b8eb"/>
<path transform="matrix(1,0,0,-1,14.141,183.068)" stroke-width="1.19553" stroke-linecap="butt" stroke-miterlimit="10" stroke-linejoin="miter" fill="none" stroke="#00b8eb" d="M 174.84632 20.31633 L 176.39934 17.62639 L 173.29328 17.62639 Z "/>
<path transform="matrix(1,0,0,-1,14.141,183.068)" stroke-width="1.19553" stroke-linecap="butt" stroke-miterlimit="10" stroke-linejoin="miter" fill="none" stroke="#00b8eb" d=""/>
<path transform="matrix(1,0,0,-1,14.141,183.068)" d="M 18.03258 119.5423 L 20.82213 119.5423 L 20.82213 122.33185 L 18.03258 122.33185 Z " fill="#ffa600"/>
<path transform="matrix(1,0,0,-1,14.141,183.068)" stroke-width="1.19553" stroke-linecap="butt" stroke-miterlimit="10" stroke-linejoin="miter" fill="none" stroke="#ffa600" d="M 18.03258 119.5423 L 20.82213 119.5423 L 20.82213 122.33185 L 18.03258 122.33185 Z "/>
<path transform="matrix(1,0,0,-1,14.141,183.068)" d="M 56.88731 107.01134 L 59.67686 107.01134 L 59.67686 109.80089 L 56.88731 109.80089 Z " fill="#ffa600"/>
<path transform="matrix(1,0,0,-1,14.141,183.068)" stroke-width="1.19553" stroke-linecap="butt" stroke-miterlimit="10" stroke-linejoin="miter" fill="none" stroke="#ffa600" d="M 56.88731 107.01134 L 59.67686 107.01134 L 59.67686 109.80089 L 56.88731 109.80089 Z "/>
<path transform="matrix(1,0,0,-1,14.141,183.068)" d="M 95.74205 133.64495 L 98.5316 133.64495 L 98.5316 136.4345 L 95.74205 136.4345 Z " fill="#ffa600"/>
<path transform="matrix(1,0,0,-1,14.141,183.068)" stroke-width="1.19553" stroke-linecap="butt" stroke-miterlimit="10" stroke-linejoin="miter" fill="none" stroke="#ffa600" d="M 95.74205 133.64495 L 98.5316 133.64495 L 98.5316 136.4345 L 95.74205 136.4345 Z "/>
<path transform="matrix(1,0,0,-1,14.141,183.068)" d="M 134.59679 131.94228 L 137.38634 131.94228 L 137.38634 134.73183 L 134.59679 134.73183 Z " fill="#ffa600"/>
<path transform="matrix(1,0,0,-1,14.141,183.068)" stroke-width="1.19553" stroke-linecap="butt" stroke-miterlimit="10" stroke-linejoin="miter" fill="none" stroke="#ffa600" d="M 134.59679 131.94228 L 137.38634 131.94228 L 137.38634 134.73183 L 134.59679 134.73183 Z "/>
<path transform="matrix(1,0,0,-1,14.141,183.068)" d="M 173.45153 150.68692 L 176.24108 150.68692 L 176.24108 153.47647 L 173.45153 153.47647 Z " fill="#ffa600"/>
<path transform="matrix(1,0,0,-1,14.141,183.068)" stroke-width="1.19553" stroke-linecap="butt" stroke-miterlimit="10" stroke-linejoin="miter" fill="none" stroke="#ffa600" d="M 173.45153 150.68692 L 176.24108 150.68692 L 176.24108 153.47647 L 173.45153 153.47647 Z "/>
<path transform="matrix(1,0,0,-1,14.141,183.068)" stroke-width="1.19553" stroke-linecap="butt" stroke-miterlimit="10" stroke-linejoin="miter" fill="none" stroke="#ffa600" d=""/>
<path transform="matrix(1,0,0,-1,14.141,183.068)" d="M 21.22066 22.2474 C 21.22066 23.23782 20.41779 24.04071 19.42737 24.04071 C 18.43694 24.04071 17.63406 23.23782 17.63406 22.2474 C 17.63406 21.25697 18.43694 20.4541 19.42737 20.4541 C 20.41779 20.4541 21.22066 21.25697 21.22066 22.2474 Z M 18.15932 20.97935 L 20.6954 23.51544 M 18.15932 23.51544 L 20.6954 20.97935 " fill="#800080"/>
<path transform="matrix(1,0,0,-1,14.141,183.068)" stroke-width="1.19553" stroke-linecap="butt" stroke-miterlimit="10" stroke-linejoin="miter" fill="none" stroke="#800080" d="M 21.22066 22.2474 C 21.22066 23.23782 20.41779 24.04071 19.42737 24.04071 C 18.43694 24.04071 17.63406 23.23782 17.63406 22.2474 C 17.63406 21.25697 18.43694 20.4541 19.42737 20.4541 C 20.41779 20.4541 21.22066 21.25697 21.22066 22.2474 Z M 18.15932 20.97935 L 20.6954 23.51544 M 18.15932 23.51544 L 20.6954 20.97935 "/>
<path transform="matrix(1,0,0,-1,14.141,183.068)" d="M 60.0754 25.04947 C 60.0754 26.03989 59.27252 26.84276 58.2821 26.84276 C 57.29167 26.84276 56.4888 26.03989 56.4888 25.04947 C 56.4888 24.05904 57.29167 23.25616 58.2821 23.25616 C 59.27252 23.25616 60.0754 24.05904 60.0754 25.04947 Z M 57.01405 23.78142 L 59.55014 26.3175 M 57.01405 26.3175 L 59.55014 23.78142 " fill="#800080"/>
<path transform="matrix(1,0,0,-1,14.141,183.068)" stroke-width="1.19553" stroke-linecap="butt" stroke-miterlimit="10" stroke-linejoin="miter" fill="none" stroke="#800080" d="M 60.0754 25.04947 C 60.0754 26.03989 59.27252 26.84276 58.2821 26.84276 C 57.29167 26.84276 56.4888 26.03989 56.4888 25.04947 C 56.4888 24.05904 57.29167 23.25616 58.2821 23.25616 C 59.27252 23.25616 60.0754 24.05904 60.0754 25.04947 Z M 57.01405 23.78142 L 59.55014 26.3175 M 57.01405 26.3175 L 59.55014 23.78142 "/>
<path transform="matrix(1,0,0,-1,14.141,183.068)" d="M 98.93013 36.42882 C 98.93013 37.41924 98.12726 38.2221 97.13684 38.2221 C 96.14641 38.2221 95.34354 37.41924 95.34354 36.42882 C 95.34354 35.43839 96.14641 34.63551 97.13684 34.63551 C 98.12726 34.63551 98.93013 35.43839 98.93013 36.42882 Z M 95.86879 35.16077 L 98.40488 37.69685 M 95.86879 37.69685 L 98.40488 35.16077 " fill="#800080"/>
<path transform="matrix(1,0,0,-1,14.141,183.068)" stroke-width="1.19553" stroke-linecap="butt" stroke-miterlimit="10" stroke-linejoin="miter" fill="none" stroke="#800080" d="M 98.93013 36.42882 C 98.93013 37.41924 98.12726 38.2221 97.13684 38.2221 C 96.14641 38.2221 95.34354 37.41924 95.34354 36.42882 C 95.34354 35.43839 96.14641 34.63551 97.13684 34.63551 C 98.12726 34.63551 98.93013 35.43839 98.93013 36.42882 Z M 95.86879 35.16077 L 98.40488 37.69685 M 95.86879 37.69685 L 98.40488 35.16077 "/>
<path transform="matrix(1,0,0,-1,14.141,183.068)" d="M 137.78487 40.79938 C 137.78487 41.78981 136.982 42.59268 135.99158 42.59268 C 135.00115 42.59268 134.19828 41.78981 134.19828 40.79938 C 134.19828 39.80896 135.00115 39.00607 135.99158 39.00607 C 136.982 39.00607 137.78487 39.80896 137.78487 40.79938 Z M 134.72353 39.53134 L 137.25962 42.06743 M 134.72353 42.06743 L 137.25962 39.53134 " fill="#800080"/>
<path transform="matrix(1,0,0,-1,14.141,183.068)" stroke-width="1.19553" stroke-linecap="butt" stroke-miterlimit="10" stroke-linejoin="miter" fill="none" stroke="#800080" d="M 137.78487 40.79938 C 137.78487 41.78981 136.982 42.59268 135.99158 42.59268 C 135.00115 42.59268 134.19828 41.78981 134.19828 40.79938 C 134.19828 39.80896 135.00115 39.00607 135.99158 39.00607 C 136.982 39.00607 137.78487 39.80896 137.78487 40.79938 Z M 134.72353 39.53134 L 137.25962 42.06743 M 134.72353 42.06743 L 137.25962 39.53134 "/>
<path transform="matrix(1,0,0,-1,14.141,183.068)" d="M 176.6396 39.15706 C 176.6396 40.14749 175.83673 40.95036 174.84632 40.95036 C 173.85588 40.95036 173.05301 40.14749 173.05301 39.15706 C 173.05301 38.16664 173.85588 37.36377 174.84632 37.36377 C 175.83673 37.36377 176.6396 38.16664 176.6396 39.15706 Z M 173.57826 37.88902 L 176.11435 40.42511 M 173.57826 40.42511 L 176.11435 37.88902 " fill="#800080"/>
<path transform="matrix(1,0,0,-1,14.141,183.068)" stroke-width="1.19553" stroke-linecap="butt" stroke-miterlimit="10" stroke-linejoin="miter" fill="none" stroke="#800080" d="M 176.6396 39.15706 C 176.6396 40.14749 175.83673 40.95036 174.84632 40.95036 C 173.85588 40.95036 173.05301 40.14749 173.05301 39.15706 C 173.05301 38.16664 173.85588 37.36377 174.84632 37.36377 C 175.83673 37.36377 176.6396 38.16664 176.6396 39.15706 Z M 173.57826 37.88902 L 176.11435 40.42511 M 173.57826 40.42511 L 176.11435 37.88902 "/>
<path transform="matrix(1,0,0,-1,14.141,183.068)" stroke-width="1.19553" stroke-linecap="butt" stroke-miterlimit="10" stroke-linejoin="miter" fill="none" stroke="#800080" d=""/>
<path transform="matrix(1,0,0,-1,14.141,183.068)" d="M 19.42737 86.44582 L 20.84705 84.55289 L 19.42737 82.65997 L 18.00768 84.55289 Z " fill="#ff008f"/>
<path transform="matrix(1,0,0,-1,14.141,183.068)" stroke-width="1.19553" stroke-linecap="butt" stroke-miterlimit="10" stroke-linejoin="miter" fill="none" stroke="#ff008f" d="M 19.42737 86.44582 L 20.84705 84.55289 L 19.42737 82.65997 L 18.00768 84.55289 Z "/>
<path transform="matrix(1,0,0,-1,14.141,183.068)" d="M 58.2821 82.20851 L 59.70178 80.31558 L 58.2821 78.42267 L 56.86241 80.31558 Z " fill="#ff008f"/>
<path transform="matrix(1,0,0,-1,14.141,183.068)" stroke-width="1.19553" stroke-linecap="butt" stroke-miterlimit="10" stroke-linejoin="miter" fill="none" stroke="#ff008f" d="M 58.2821 82.20851 L 59.70178 80.31558 L 58.2821 78.42267 L 56.86241 80.31558 Z "/>
<path transform="matrix(1,0,0,-1,14.141,183.068)" d="M 97.13684 93.64664 L 98.55652 91.75372 L 97.13684 89.86081 L 95.71715 91.75372 Z " fill="#ff008f"/>
<path transform="matrix(1,0,0,-1,14.141,183.068)" stroke-width="1.19553" stroke-linecap="butt" stroke-miterlimit="10" stroke-linejoin="miter" fill="none" stroke="#ff008f" d="M 97.13684 93.64664 L 98.55652 91.75372 L 97.13684 89.86081 L 95.71715 91.75372 Z "/>
<path transform="matrix(1,0,0,-1,14.141,183.068)" d="M 135.99158 95.90474 L 137.41126 94.01183 L 135.99158 92.1189 L 134.57189 94.01183 Z " fill="#ff008f"/>
<path transform="matrix(1,0,0,-1,14.141,183.068)" stroke-width="1.19553" stroke-linecap="butt" stroke-miterlimit="10" stroke-linejoin="miter" fill="none" stroke="#ff008f" d="M 135.99158 95.90474 L 137.41126 94.01183 L 135.99158 92.1189 L 134.57189 94.01183 Z "/>
<path transform="matrix(1,0,0,-1,14.141,183.068)" d="M 174.84632 99.87689 L 176.26599 97.98398 L 174.84632 96.09106 L 173.42662 97.98398 Z " fill="#ff008f"/>
<path transform="matrix(1,0,0,-1,14.141,183.068)" stroke-width="1.19553" stroke-linecap="butt" stroke-miterlimit="10" stroke-linejoin="miter" fill="none" stroke="#ff008f" d="M 174.84632 99.87689 L 176.26599 97.98398 L 174.84632 96.09106 L 173.42662 97.98398 Z "/>
<path transform="matrix(1,0,0,-1,14.141,183.068)" stroke-width="1.19553" stroke-linecap="butt" stroke-miterlimit="10" stroke-linejoin="miter" fill="none" stroke="#ff008f" d=""/>
<path transform="matrix(1,0,0,-1,14.141,183.068)" stroke-width="1.19553" stroke-linecap="butt" stroke-miterlimit="10" stroke-linejoin="miter" fill="none" stroke="#e3d10a" d="M 19.42737 18.69518 L 19.42737 21.18587 M 19.42737 18.69518 L 21.79616 19.46484 M 19.42737 18.69518 L 20.89134 16.68015 M 19.42737 18.69518 L 17.96338 16.68015 M 19.42737 18.69518 L 17.05856 19.46484 "/>
<path transform="matrix(1,0,0,-1,14.141,183.068)" stroke-width="1.19553" stroke-linecap="butt" stroke-miterlimit="10" stroke-linejoin="miter" fill="none" stroke="#e3d10a" d="M 58.2821 13.59784 L 58.2821 16.08853 M 58.2821 13.59784 L 60.6509 14.36752 M 58.2821 13.59784 L 59.74608 11.58282 M 58.2821 13.59784 L 56.81812 11.58282 M 58.2821 13.59784 L 55.9133 14.36752 "/>
<path transform="matrix(1,0,0,-1,14.141,183.068)" stroke-width="1.19553" stroke-linecap="butt" stroke-miterlimit="10" stroke-linejoin="miter" fill="none" stroke="#e3d10a" d="M 97.13684 18.96768 L 97.13684 21.45837 M 97.13684 18.96768 L 99.50563 19.73737 M 97.13684 18.96768 L 98.60081 16.95267 M 97.13684 18.96768 L 95.67285 16.95267 M 97.13684 18.96768 L 94.76804 19.73737 "/>
<path transform="matrix(1,0,0,-1,14.141,183.068)" stroke-width="1.19553" stroke-linecap="butt" stroke-miterlimit="10" stroke-linejoin="miter" fill="none" stroke="#e3d10a" d="M 135.99158 27.58412 L 135.99158 30.07481 M 135.99158 27.58412 L 138.36037 28.35379 M 135.99158 27.58412 L 137.45555 25.56909 M 135.99158 27.58412 L 134.52759 25.56909 M 135.99158 27.58412 L 133.62277 28.35379 "/>
<path transform="matrix(1,0,0,-1,14.141,183.068)" stroke-width="1.19553" stroke-linecap="butt" stroke-miterlimit="10" stroke-linejoin="miter" fill="none" stroke="#e3d10a" d="M 174.84632 34.38454 L 174.84632 36.87523 M 174.84632 34.38454 L 177.2151 35.15422 M 174.84632 34.38454 L 176.31029 32.36952 M 174.84632 34.38454 L 173.38233 32.36952 M 174.84632 34.38454 L 172.47751 35.15422 "/>
<path transform="matrix(1,0,0,-1,14.141,183.068)" stroke-width="1.19553" stroke-linecap="butt" stroke-miterlimit="10" stroke-linejoin="miter" fill="none" stroke="#e3d10a" d=""/>
<text xml:space="preserve" transform="matrix(1 0 -0 1 0 199.566)" font-size="9.9626" font-family="CMMI10" font-style="italic"><tspan y="-94.657" x="3.321">i</tspan></text>
<text xml:space="preserve" transform="matrix(1 0 -0 1 0 199.566)" font-size="6.9738" font-family="CMMI7" font-style="italic"><tspan y="-93.162998" x="6.7530004">b</tspan></text>
<text xml:space="preserve" transform="matrix(1 0 -0 1 0 199.566)" font-size="9.9626" font-family="CMR10"><tspan y="-189.327" x="32.239 39.29252 44.27382 49.813028 55.352235 60.89144 65.87274 69.77808 78.35588 85.14041 89.04575 93.46915 97.39441 101.8178 105.723148 110.435459 115.416759 119.292209 122.061809 127.043109 135.89986 142.40544 146.82884 150.73418 153.78273 158.76403 162.66936 170.9682 175.9495 181.4887 185.9121">BoundaryPreservationPerformance</tspan></text>
</g>
</svg>
