<?xml version="1.0" encoding="UTF-8" standalone="no"?>
<!DOCTYPE svg PUBLIC "-//W3C//DTD SVG 1.1//EN" "http://www.w3.org/Graphics/SVG/1.1/DTD/svg11.dtd">
<svg xmlns="http://www.w3.org/2000/svg" xmlns:xlink="http://www.w3.org/1999/xlink" version="1.1" width="209.255pt" height="199.564pt" viewBox="0 0 209.255 199.564">
<g enable-background="new">
<path transform="matrix(1,0,0,-1,14.784,183.066)" d="M 0 0 L 194.27368 0 L 194.27368 161.39408 L 0 161.39408 Z " fill="#fff7e8"/>
<clipPath id="cp0">
<path transform="matrix(1,0,0,-1,14.784,183.066)" d="M 0 -141.7454 L 194.27368 -141.7454 L 194.27368 303.1395 L 0 303.1395 "/>
</clipPath>
<g clip-path="url(#cp0)">
<path transform="matrix(1,0,0,-1,14.784,183.066)" stroke-width=".3985" stroke-linecap="butt" stroke-dasharray="2.98883,2.98883" stroke-miterlimit="10" stroke-linejoin="miter" fill="none" stroke="#cbcbcb" d="M 19.42737 0 L 19.42737 161.39408 M 58.2821 0 L 58.2821 161.39408 M 97.13684 0 L 97.13684 161.39408 M 135.99158 0 L 135.99158 161.39408 M 174.84632 0 L 174.84632 161.39408 "/>
</g>
<clipPath id="cp1">
<path transform="matrix(1,0,0,-1,14.784,183.066)" d="M -141.7406 0 L -141.7406 161.39408 L 336.01429 161.39408 L 336.01429 0 "/>
</clipPath>
<g clip-path="url(#cp1)">
<path transform="matrix(1,0,0,-1,14.784,183.066)" stroke-width=".3985" stroke-linecap="butt" stroke-dasharray="2.98883,2.98883" stroke-miterlimit="10" stroke-linejoin="miter" fill="none" stroke="#cbcbcb" d="M 0 0 L 194.27368 0 M 0 33.27713 L 194.27368 33.27713 M 0 66.55426 L 194.27368 66.55426 M 0 99.83139 L 194.27368 99.83139 M 0 133.10852 L 194.27368 133.10852 "/>
</g>
<clipPath id="cp2">
<path transform="matrix(1,0,0,-1,14.784,183.066)" d="M 0 -141.7454 L 194.27368 -141.7454 L 194.27368 303.1395 L 0 303.1395 "/>
</clipPath>
<g clip-path="url(#cp2)">
<path transform="matrix(1,0,0,-1,14.784,183.066)" stroke-width=".19925" stroke-linecap="butt" stroke-miterlimit="10" stroke-linejoin="miter" fill="none" stroke="#929292" d="M 19.42737 0 L 19.42737 4.25217 M 58.2821 0 L 58.2821 4.25217 M 97.13684 0 L 97.13684 4.25217 M 135.99158 0 L 135.99158 4.25217 M 174.84632 0 L 174.84632 4.25217 M 19.42737 161.39408 L 19.42737 157.14189 M 58.2821 161.39408 L 58.2821 157.14189 M 97.13684 161.39408 L 97.13684 157.14189 M 135.99158 161.39408 L 135.99158 157.14189 M 174.84632 161.39408 L 174.84632 157.14189 "/>
</g>
<clipPath id="cp3">
<path transform="matrix(1,0,0,-1,14.784,183.066)" d="M -141.7406 0 L -141.7406 161.39408 L 336.01429 161.39408 L 336.01429 0 "/>
</clipPath>
<g clip-path="url(#cp3)">
<path transform="matrix(1,0,0,-1,14.784,183.066)" stroke-width=".19925" stroke-linecap="butt" stroke-miterlimit="10" stroke-linejoin="miter" fill="none" stroke="#929292" d="M 0 0 L 4.25201 0 M 0 33.27713 L 4.25201 33.27713 M 0 66.55426 L 4.25201 66.55426 M 0 99.83139 L 4.25201 99.83139 M 0 133.10852 L 4.25201 133.10852 M 194.27368 0 L 190.02164 0 M 194.27368 33.27713 L 190.02164 33.27713 M 194.27368 66.55426 L 190.02164 66.55426 M 194.27368 99.83139 L 190.02164 99.83139 M 194.27368 133.10852 L 190.02164 133.10852 "/>
</g>
<path transform="matrix(1,0,0,-1,14.784,183.066)" stroke-width=".3985" stroke-linecap="butt" stroke-miterlimit="10" stroke-linejoin="miter" fill="none" stroke="#000000" d="M 0 0 L 0 161.39408 L 194.27368 161.39408 L 194.27368 0 L 0 0 Z "/>
<text xml:space="preserve" transform="matrix(1 0 -0 1 0 199.564)" font-size="9.9626" font-family="CMSY10" font-style="italic"><tspan y="-6.171" x="28.541">L</tspan></text>
<text xml:space="preserve" transform="matrix(1 0 -0 1 0 199.564)" font-size="6.9738" font-family="CMR7"><tspan y="-4.677" x="35.413003">1</tspan></text>
<text xml:space="preserve" transform="matrix(1 0 -0 1 0 199.564)" font-size="9.9626" font-family="CMSY10" font-style="italic"><tspan y="-6.171" x="57.993">L</tspan></text>
<text xml:space="preserve" transform="matrix(1 0 -0 1 0 199.564)" font-size="6.9738" font-family="CMMI7" font-style="italic"><tspan y="-4.677" x="64.864 68.42761 72.36083 76.11971 78.937129 83.86063">cosine</tspan></text>
<text xml:space="preserve" transform="matrix(1 0 -0 1 0 199.564)" font-size="9.9626" font-family="CMSY10" font-style="italic"><tspan y="-6.171" x="99.976">L</tspan></text>
<text xml:space="preserve" transform="matrix(1 0 -0 1 0 199.564)" font-size="6.9738" font-family="CMMI7" font-style="italic"><tspan y="-4.677" x="106.847 110.98247 114.89477 119.21852">grad</tspan></text>
<text xml:space="preserve" transform="matrix(1 0 -0 1 0 199.564)" font-size="9.9626" font-family="CMSY10" font-style="italic"><tspan y="-6.171" x="138.056">L</tspan></text>
<text xml:space="preserve" transform="matrix(1 0 -0 1 0 199.564)" font-size="6.9738" font-family="CMMI7" font-style="italic"><tspan y="-4.677" x="144.928 148.49161 152.42484 159.49628">comb</tspan></text>
<text xml:space="preserve" transform="matrix(1 0 -0 1 0 199.564)" font-size="9.9626" font-family="CMSY10" font-style="italic"><tspan y="-6.171" x="180.084">L</tspan></text>
<text xml:space="preserve" transform="matrix(1 0 -0 1 0 199.564)" font-size="6.9738" font-family="CMMI7" font-style="italic"><tspan y="-4.677" x="186.955 191.1881 196.1116">vnl</tspan></text>
<clipPath id="cp4">
<path transform="matrix(1,0,0,-1,14.784,183.066)" d="M 0 0 L 194.27368 0 L 194.27368 161.39408 L 0 161.39408 Z "/>
</clipPath>
<g clip-path="url(#cp4)">
<path transform="matrix(1,0,0,-1,14.784,183.066)" stroke-width="1.19553" stroke-linecap="butt" stroke-miterlimit="10" stroke-linejoin="miter" fill="none" stroke="#00b8eb" d="M 19.42737 37.97258 L 58.2821 42.49197 L 97.13684 77.5288 L 135.99158 86.25352 L 174.84632 78.06593 "/>
<path transform="matrix(1,0,0,-1,14.784,183.066)" stroke-width="1.19553" stroke-linecap="butt" stroke-miterlimit="10" stroke-linejoin="miter" fill="none" stroke="#ffa600" d="M 19.42737 97.39188 L 58.2821 104.66425 L 97.13684 123.33482 L 135.99158 119.27885 L 174.84632 151.14833 "/>
<path transform="matrix(1,0,0,-1,14.784,183.066)" stroke-width="1.19553" stroke-linecap="butt" stroke-miterlimit="10" stroke-linejoin="miter" fill="none" stroke="#800080" d="M 19.42737 35.23303 L 58.2821 69.04185 L 97.13684 61.06049 L 135.99158 90.98434 L 174.84632 89.661 "/>
<path transform="matrix(1,0,0,-1,14.784,183.066)" stroke-width="1.19553" stroke-linecap="butt" stroke-miterlimit="10" stroke-linejoin="miter" fill="none" stroke="#ff008f" d="M 19.42737 75.89449 L 58.2821 93.36844 L 97.13684 153.2631 L 135.99158 135.92929 L 174.84632 98.61919 "/>
<path transform="matrix(1,0,0,-1,14.784,183.066)" stroke-width="1.19553" stroke-linecap="butt" stroke-miterlimit="10" stroke-linejoin="miter" fill="none" stroke="#e3d10a" d="M 19.42737 9.38504 L 58.2821 8.21268 L 97.13684 10.12334 L 135.99158 31.86613 L 174.84632 27.07329 "/>
</g>
<path transform="matrix(1,0,0,-1,14.784,183.066)" d="M 19.42737 39.76587 L 20.9804 37.07593 L 17.87433 37.07593 Z " fill="#00b8eb"/>
<path transform="matrix(1,0,0,-1,14.784,183.066)" stroke-width="1.19553" stroke-linecap="butt" stroke-miterlimit="10" stroke-linejoin="miter" fill="none" stroke="#00b8eb" d="M 19.42737 39.76587 L 20.9804 37.07593 L 17.87433 37.07593 Z "/>
<path transform="matrix(1,0,0,-1,14.784,183.066)" d="M 58.2821 44.28528 L 59.83513 41.59532 L 56.72906 41.59532 Z " fill="#00b8eb"/>
<path transform="matrix(1,0,0,-1,14.784,183.066)" stroke-width="1.19553" stroke-linecap="butt" stroke-miterlimit="10" stroke-linejoin="miter" fill="none" stroke="#00b8eb" d="M 58.2821 44.28528 L 59.83513 41.59532 L 56.72906 41.59532 Z "/>
<path transform="matrix(1,0,0,-1,14.784,183.066)" d="M 97.13684 79.3221 L 98.68987 76.63214 L 95.5838 76.63214 Z " fill="#00b8eb"/>
<path transform="matrix(1,0,0,-1,14.784,183.066)" stroke-width="1.19553" stroke-linecap="butt" stroke-miterlimit="10" stroke-linejoin="miter" fill="none" stroke="#00b8eb" d="M 97.13684 79.3221 L 98.68987 76.63214 L 95.5838 76.63214 Z "/>
<path transform="matrix(1,0,0,-1,14.784,183.066)" d="M 135.99158 88.04683 L 137.5446 85.35689 L 134.43854 85.35689 Z " fill="#00b8eb"/>
<path transform="matrix(1,0,0,-1,14.784,183.066)" stroke-width="1.19553" stroke-linecap="butt" stroke-miterlimit="10" stroke-linejoin="miter" fill="none" stroke="#00b8eb" d="M 135.99158 88.04683 L 137.5446 85.35689 L 134.43854 85.35689 Z "/>
<path transform="matrix(1,0,0,-1,14.784,183.066)" d="M 174.84632 79.85924 L 176.39934 77.1693 L 173.29328 77.1693 Z " fill="#00b8eb"/>
<path transform="matrix(1,0,0,-1,14.784,183.066)" stroke-width="1.19553" stroke-linecap="butt" stroke-miterlimit="10" stroke-linejoin="miter" fill="none" stroke="#00b8eb" d="M 174.84632 79.85924 L 176.39934 77.1693 L 173.29328 77.1693 Z "/>
<path transform="matrix(1,0,0,-1,14.784,183.066)" stroke-width="1.19553" stroke-linecap="butt" stroke-miterlimit="10" stroke-linejoin="miter" fill="none" stroke="#00b8eb" d=""/>
<path transform="matrix(1,0,0,-1,14.784,183.066)" d="M 18.03258 95.9971 L 20.82213 95.9971 L 20.82213 98.78665 L 18.03258 98.78665 Z " fill="#ffa600"/>
<path transform="matrix(1,0,0,-1,14.784,183.066)" stroke-width="1.19553" stroke-linecap="butt" stroke-miterlimit="10" stroke-linejoin="miter" fill="none" stroke="#ffa600" d="M 18.03258 95.9971 L 20.82213 95.9971 L 20.82213 98.78665 L 18.03258 98.78665 Z "/>
<path transform="matrix(1,0,0,-1,14.784,183.066)" d="M 56.88731 103.26947 L 59.67686 103.26947 L 59.67686 106.05902 L 56.88731 106.05902 Z " fill="#ffa600"/>
<path transform="matrix(1,0,0,-1,14.784,183.066)" stroke-width="1.19553" stroke-linecap="butt" stroke-miterlimit="10" stroke-linejoin="miter" fill="none" stroke="#ffa600" d="M 56.88731 103.26947 L 59.67686 103.26947 L 59.67686 106.05902 L 56.88731 106.05902 Z "/>
<path transform="matrix(1,0,0,-1,14.784,183.066)" d="M 95.74205 121.94005 L 98.5316 121.94005 L 98.5316 124.7296 L 95.74205 124.7296 Z " fill="#ffa600"/>
<path transform="matrix(1,0,0,-1,14.784,183.066)" stroke-width="1.19553" stroke-linecap="butt" stroke-miterlimit="10" stroke-linejoin="miter" fill="none" stroke="#ffa600" d="M 95.74205 121.94005 L 98.5316 121.94005 L 98.5316 124.7296 L 95.74205 124.7296 Z "/>
<path transform="matrix(1,0,0,-1,14.784,183.066)" d="M 134.59679 117.88406 L 137.38634 117.88406 L 137.38634 120.673618 L 134.59679 120.673618 Z " fill="#ffa600"/>
<path transform="matrix(1,0,0,-1,14.784,183.066)" stroke-width="1.19553" stroke-linecap="butt" stroke-miterlimit="10" stroke-linejoin="miter" fill="none" stroke="#ffa600" d="M 134.59679 117.88406 L 137.38634 117.88406 L 137.38634 120.673618 L 134.59679 120.673618 Z "/>
<path transform="matrix(1,0,0,-1,14.784,183.066)" d="M 173.45153 149.75356 L 176.24108 149.75356 L 176.24108 152.5431 L 173.45153 152.5431 Z " fill="#ffa600"/>
<path transform="matrix(1,0,0,-1,14.784,183.066)" stroke-width="1.19553" stroke-linecap="butt" stroke-miterlimit="10" stroke-linejoin="miter" fill="none" stroke="#ffa600" d="M 173.45153 149.75356 L 176.24108 149.75356 L 176.24108 152.5431 L 173.45153 152.5431 Z "/>
<path transform="matrix(1,0,0,-1,14.784,183.066)" stroke-width="1.19553" stroke-linecap="butt" stroke-miterlimit="10" stroke-linejoin="miter" fill="none" stroke="#ffa600" d=""/>
<path transform="matrix(1,0,0,-1,14.784,183.066)" d="M 21.22066 35.23303 C 21.22066 36.22345 20.41779 37.02632 19.42737 37.02632 C 18.43694 37.02632 17.63406 36.22345 17.63406 35.23303 C 17.63406 34.2426 18.43694 33.43973 19.42737 33.43973 C 20.41779 33.43973 21.22066 34.2426 21.22066 35.23303 Z M 18.15932 33.96498 L 20.6954 36.50107 M 18.15932 36.50107 L 20.6954 33.96498 " fill="#800080"/>
<path transform="matrix(1,0,0,-1,14.784,183.066)" stroke-width="1.19553" stroke-linecap="butt" stroke-miterlimit="10" stroke-linejoin="miter" fill="none" stroke="#800080" d="M 21.22066 35.23303 C 21.22066 36.22345 20.41779 37.02632 19.42737 37.02632 C 18.43694 37.02632 17.63406 36.22345 17.63406 35.23303 C 17.63406 34.2426 18.43694 33.43973 19.42737 33.43973 C 20.41779 33.43973 21.22066 34.2426 21.22066 35.23303 Z M 18.15932 33.96498 L 20.6954 36.50107 M 18.15932 36.50107 L 20.6954 33.96498 "/>
<path transform="matrix(1,0,0,-1,14.784,183.066)" d="M 60.0754 69.04185 C 60.0754 70.03229 59.27252 70.83516 58.2821 70.83516 C 57.29167 70.83516 56.4888 70.03229 56.4888 69.04185 C 56.4888 68.05144 57.29167 67.24857 58.2821 67.24857 C 59.27252 67.24857 60.0754 68.05144 60.0754 69.04185 Z M 57.01405 67.77382 L 59.55014 70.3099 M 57.01405 70.3099 L 59.55014 67.77382 " fill="#800080"/>
<path transform="matrix(1,0,0,-1,14.784,183.066)" stroke-width="1.19553" stroke-linecap="butt" stroke-miterlimit="10" stroke-linejoin="miter" fill="none" stroke="#800080" d="M 60.0754 69.04185 C 60.0754 70.03229 59.27252 70.83516 58.2821 70.83516 C 57.29167 70.83516 56.4888 70.03229 56.4888 69.04185 C 56.4888 68.05144 57.29167 67.24857 58.2821 67.24857 C 59.27252 67.24857 60.0754 68.05144 60.0754 69.04185 Z M 57.01405 67.77382 L 59.55014 70.3099 M 57.01405 70.3099 L 59.55014 67.77382 "/>
<path transform="matrix(1,0,0,-1,14.784,183.066)" d="M 98.93013 61.06049 C 98.93013 62.0509 98.12726 62.85379 97.13684 62.85379 C 96.14641 62.85379 95.34354 62.0509 95.34354 61.06049 C 95.34354 60.07007 96.14641 59.26718 97.13684 59.26718 C 98.12726 59.26718 98.93013 60.07007 98.93013 61.06049 Z M 95.86879 59.79245 L 98.40488 62.32854 M 95.86879 62.32854 L 98.40488 59.79245 " fill="#800080"/>
<path transform="matrix(1,0,0,-1,14.784,183.066)" stroke-width="1.19553" stroke-linecap="butt" stroke-miterlimit="10" stroke-linejoin="miter" fill="none" stroke="#800080" d="M 98.93013 61.06049 C 98.93013 62.0509 98.12726 62.85379 97.13684 62.85379 C 96.14641 62.85379 95.34354 62.0509 95.34354 61.06049 C 95.34354 60.07007 96.14641 59.26718 97.13684 59.26718 C 98.12726 59.26718 98.93013 60.07007 98.93013 61.06049 Z M 95.86879 59.79245 L 98.40488 62.32854 M 95.86879 62.32854 L 98.40488 59.79245 "/>
<path transform="matrix(1,0,0,-1,14.784,183.066)" d="M 137.78487 90.98434 C 137.78487 91.97478 136.982 92.77765 135.99158 92.77765 C 135.00115 92.77765 134.19828 91.97478 134.19828 90.98434 C 134.19828 89.99393 135.00115 89.19106 135.99158 89.19106 C 136.982 89.19106 137.78487 89.99393 137.78487 90.98434 Z M 134.72353 89.71631 L 137.25962 92.2524 M 134.72353 92.2524 L 137.25962 89.71631 " fill="#800080"/>
<path transform="matrix(1,0,0,-1,14.784,183.066)" stroke-width="1.19553" stroke-linecap="butt" stroke-miterlimit="10" stroke-linejoin="miter" fill="none" stroke="#800080" d="M 137.78487 90.98434 C 137.78487 91.97478 136.982 92.77765 135.99158 92.77765 C 135.00115 92.77765 134.19828 91.97478 134.19828 90.98434 C 134.19828 89.99393 135.00115 89.19106 135.99158 89.19106 C 136.982 89.19106 137.78487 89.99393 137.78487 90.98434 Z M 134.72353 89.71631 L 137.25962 92.2524 M 134.72353 92.2524 L 137.25962 89.71631 "/>
<path transform="matrix(1,0,0,-1,14.784,183.066)" d="M 176.6396 89.661 C 176.6396 90.65143 175.83673 91.4543 174.84632 91.4543 C 173.85588 91.4543 173.05301 90.65143 173.05301 89.661 C 173.05301 88.67058 173.85588 87.8677 174.84632 87.8677 C 175.83673 87.8677 176.6396 88.67058 176.6396 89.661 Z M 173.57826 88.39296 L 176.11435 90.92905 M 173.57826 90.92905 L 176.11435 88.39296 " fill="#800080"/>
<path transform="matrix(1,0,0,-1,14.784,183.066)" stroke-width="1.19553" stroke-linecap="butt" stroke-miterlimit="10" stroke-linejoin="miter" fill="none" stroke="#800080" d="M 176.6396 89.661 C 176.6396 90.65143 175.83673 91.4543 174.84632 91.4543 C 173.85588 91.4543 173.05301 90.65143 173.05301 89.661 C 173.05301 88.67058 173.85588 87.8677 174.84632 87.8677 C 175.83673 87.8677 176.6396 88.67058 176.6396 89.661 Z M 173.57826 88.39296 L 176.11435 90.92905 M 173.57826 90.92905 L 176.11435 88.39296 "/>
<path transform="matrix(1,0,0,-1,14.784,183.066)" stroke-width="1.19553" stroke-linecap="butt" stroke-miterlimit="10" stroke-linejoin="miter" fill="none" stroke="#800080" d=""/>
<path transform="matrix(1,0,0,-1,14.784,183.066)" d="M 19.42737 77.7874 L 20.84705 75.89449 L 19.42737 74.00157 L 18.00768 75.89449 Z " fill="#ff008f"/>
<path transform="matrix(1,0,0,-1,14.784,183.066)" stroke-width="1.19553" stroke-linecap="butt" stroke-miterlimit="10" stroke-linejoin="miter" fill="none" stroke="#ff008f" d="M 19.42737 77.7874 L 20.84705 75.89449 L 19.42737 74.00157 L 18.00768 75.89449 Z "/>
<path transform="matrix(1,0,0,-1,14.784,183.066)" d="M 58.2821 95.26137 L 59.70178 93.36844 L 58.2821 91.47552 L 56.86241 93.36844 Z " fill="#ff008f"/>
<path transform="matrix(1,0,0,-1,14.784,183.066)" stroke-width="1.19553" stroke-linecap="butt" stroke-miterlimit="10" stroke-linejoin="miter" fill="none" stroke="#ff008f" d="M 58.2821 95.26137 L 59.70178 93.36844 L 58.2821 91.47552 L 56.86241 93.36844 Z "/>
<path transform="matrix(1,0,0,-1,14.784,183.066)" d="M 97.13684 155.15602 L 98.55652 153.2631 L 97.13684 151.37018 L 95.71715 153.2631 Z " fill="#ff008f"/>
<path transform="matrix(1,0,0,-1,14.784,183.066)" stroke-width="1.19553" stroke-linecap="butt" stroke-miterlimit="10" stroke-linejoin="miter" fill="none" stroke="#ff008f" d="M 97.13684 155.15602 L 98.55652 153.2631 L 97.13684 151.37018 L 95.71715 153.2631 Z "/>
<path transform="matrix(1,0,0,-1,14.784,183.066)" d="M 135.99158 137.8222 L 137.41126 135.92929 L 135.99158 134.03636 L 134.57189 135.92929 Z " fill="#ff008f"/>
<path transform="matrix(1,0,0,-1,14.784,183.066)" stroke-width="1.19553" stroke-linecap="butt" stroke-miterlimit="10" stroke-linejoin="miter" fill="none" stroke="#ff008f" d="M 135.99158 137.8222 L 137.41126 135.92929 L 135.99158 134.03636 L 134.57189 135.92929 Z "/>
<path transform="matrix(1,0,0,-1,14.784,183.066)" d="M 174.84632 100.51212 L 176.26599 98.61919 L 174.84632 96.72627 L 173.42662 98.61919 Z " fill="#ff008f"/>
<path transform="matrix(1,0,0,-1,14.784,183.066)" stroke-width="1.19553" stroke-linecap="butt" stroke-miterlimit="10" stroke-linejoin="miter" fill="none" stroke="#ff008f" d="M 174.84632 100.51212 L 176.26599 98.61919 L 174.84632 96.72627 L 173.42662 98.61919 Z "/>
<path transform="matrix(1,0,0,-1,14.784,183.066)" stroke-width="1.19553" stroke-linecap="butt" stroke-miterlimit="10" stroke-linejoin="miter" fill="none" stroke="#ff008f" d=""/>
<path transform="matrix(1,0,0,-1,14.784,183.066)" stroke-width="1.19553" stroke-linecap="butt" stroke-miterlimit="10" stroke-linejoin="miter" fill="none" stroke="#e3d10a" d="M 19.42737 9.38504 L 19.42737 11.87573 M 19.42737 9.38504 L 21.79616 10.15471 M 19.42737 9.38504 L 20.89134 7.37001 M 19.42737 9.38504 L 17.96338 7.37001 M 19.42737 9.38504 L 17.05856 10.15471 "/>
<path transform="matrix(1,0,0,-1,14.784,183.066)" stroke-width="1.19553" stroke-linecap="butt" stroke-miterlimit="10" stroke-linejoin="miter" fill="none" stroke="#e3d10a" d="M 58.2821 8.21268 L 58.2821 10.70337 M 58.2821 8.21268 L 60.6509 8.98236 M 58.2821 8.21268 L 59.74608 6.19766 M 58.2821 8.21268 L 56.81812 6.19766 M 58.2821 8.21268 L 55.9133 8.98236 "/>
<path transform="matrix(1,0,0,-1,14.784,183.066)" stroke-width="1.19553" stroke-linecap="butt" stroke-miterlimit="10" stroke-linejoin="miter" fill="none" stroke="#e3d10a" d="M 97.13684 10.12334 L 97.13684 12.61403 M 97.13684 10.12334 L 99.50563 10.89302 M 97.13684 10.12334 L 98.60081 8.10832 M 97.13684 10.12334 L 95.67285 8.10832 M 97.13684 10.12334 L 94.76804 10.89302 "/>
<path transform="matrix(1,0,0,-1,14.784,183.066)" stroke-width="1.19553" stroke-linecap="butt" stroke-miterlimit="10" stroke-linejoin="miter" fill="none" stroke="#e3d10a" d="M 135.99158 31.86613 L 135.99158 34.35683 M 135.99158 31.86613 L 138.36037 32.63582 M 135.99158 31.86613 L 137.45555 29.85112 M 135.99158 31.86613 L 134.52759 29.85112 M 135.99158 31.86613 L 133.62277 32.63582 "/>
<path transform="matrix(1,0,0,-1,14.784,183.066)" stroke-width="1.19553" stroke-linecap="butt" stroke-miterlimit="10" stroke-linejoin="miter" fill="none" stroke="#e3d10a" d="M 174.84632 27.07329 L 174.84632 29.56398 M 174.84632 27.07329 L 177.2151 27.84296 M 174.84632 27.07329 L 176.31029 25.05826 M 174.84632 27.07329 L 173.38233 25.05826 M 174.84632 27.07329 L 172.47751 27.84296 "/>
<path transform="matrix(1,0,0,-1,14.784,183.066)" stroke-width="1.19553" stroke-linecap="butt" stroke-miterlimit="10" stroke-linejoin="miter" fill="none" stroke="#e3d10a" d=""/>
<text xml:space="preserve" transform="matrix(1 0 -0 1 0 199.564)" font-size="9.9626" font-family="CMMI10" font-style="italic"><tspan y="-94.656" x="3.321">i</tspan></text>
<text xml:space="preserve" transform="matrix(1 0 -0 1 0 199.564)" font-size="6.9738" font-family="CMMI7" font-style="italic"><tspan y="-93.161998" x="6.7530004">d</tspan></text>
<text xml:space="preserve" transform="matrix(1 0 -0 1 0 199.564)" font-size="9.9626" font-family="CMR10"><tspan y="-189.325" x="54.386 61.99743 64.76703 68.67237 73.095767 77.51916 84.71215 92.32358 96.74697 102.28618 106.16163 115.02834 121.53392 125.95731 129.86266 132.91121 137.8925 141.79784 150.09668 155.07798 160.61717 165.04058">DirectDepthPerformance</tspan></text>
</g>
</svg>
