<?xml version="1.0" encoding="UTF-8" standalone="no"?>
<!DOCTYPE svg PUBLIC "-//W3C//DTD SVG 1.1//EN" "http://www.w3.org/Graphics/SVG/1.1/DTD/svg11.dtd">
<svg xmlns="http://www.w3.org/2000/svg" xmlns:xlink="http://www.w3.org/1999/xlink" version="1.1" width="208.868pt" height="197.629pt" viewBox="0 0 208.868 197.629">
<g enable-background="new">
<path transform="matrix(1,0,0,-1,14.397,181.131)" d="M 0 0 L 194.27368 0 L 194.27368 161.39636 L 0 161.39636 Z " fill="#fff7e8"/>
<clipPath id="cp0">
<path transform="matrix(1,0,0,-1,14.397,181.131)" d="M 0 -141.73079 L 194.27368 -141.73079 L 194.27368 303.12715 L 0 303.12715 "/>
</clipPath>
<g clip-path="url(#cp0)">
<path transform="matrix(1,0,0,-1,14.397,181.131)" stroke-width=".3985" stroke-linecap="butt" stroke-dasharray="2.98883,2.98883" stroke-miterlimit="10" stroke-linejoin="miter" fill="none" stroke="#cbcbcb" d="M 19.42737 0 L 19.42737 161.39636 M 58.2821 0 L 58.2821 161.39636 M 97.13684 0 L 97.13684 161.39636 M 135.99158 0 L 135.99158 161.39636 M 174.84632 0 L 174.84632 161.39636 "/>
</g>
<clipPath id="cp1">
<path transform="matrix(1,0,0,-1,14.397,181.131)" d="M -141.7406 0 L -141.7406 161.39636 L 336.01429 161.39636 L 336.01429 0 "/>
</clipPath>
<g clip-path="url(#cp1)">
<path transform="matrix(1,0,0,-1,14.397,181.131)" stroke-width=".3985" stroke-linecap="butt" stroke-dasharray="2.98883,2.98883" stroke-miterlimit="10" stroke-linejoin="miter" fill="none" stroke="#cbcbcb" d="M 0 16.13963 L 194.27368 16.13963 M 0 56.48872 L 194.27368 56.48872 M 0 96.83781 L 194.27368 96.83781 M 0 137.1869 L 194.27368 137.1869 "/>
</g>
<clipPath id="cp2">
<path transform="matrix(1,0,0,-1,14.397,181.131)" d="M 0 -141.73079 L 194.27368 -141.73079 L 194.27368 303.12715 L 0 303.12715 "/>
</clipPath>
<g clip-path="url(#cp2)">
<path transform="matrix(1,0,0,-1,14.397,181.131)" stroke-width=".19925" stroke-linecap="butt" stroke-miterlimit="10" stroke-linejoin="miter" fill="none" stroke="#929292" d="M 19.42737 0 L 19.42737 4.25172 M 58.2821 0 L 58.2821 4.25172 M 97.13684 0 L 97.13684 4.25172 M 135.99158 0 L 135.99158 4.25172 M 174.84632 0 L 174.84632 4.25172 M 19.42737 161.39636 L 19.42737 157.1446 M 58.2821 161.39636 L 58.2821 157.1446 M 97.13684 161.39636 L 97.13684 157.1446 M 135.99158 161.39636 L 135.99158 157.1446 M 174.84632 161.39636 L 174.84632 157.1446 "/>
</g>
<clipPath id="cp3">
<path transform="matrix(1,0,0,-1,14.397,181.131)" d="M -141.7406 0 L -141.7406 161.39636 L 336.01429 161.39636 L 336.01429 0 "/>
</clipPath>
<g clip-path="url(#cp3)">
<path transform="matrix(1,0,0,-1,14.397,181.131)" stroke-width=".19925" stroke-linecap="butt" stroke-miterlimit="10" stroke-linejoin="miter" fill="none" stroke="#929292" d="M 0 16.13963 L 4.25201 16.13963 M 0 56.48872 L 4.25201 56.48872 M 0 96.83781 L 4.25201 96.83781 M 0 137.1869 L 4.25201 137.1869 M 194.27368 16.13963 L 190.02164 16.13963 M 194.27368 56.48872 L 190.02164 56.48872 M 194.27368 96.83781 L 190.02164 96.83781 M 194.27368 137.1869 L 190.02164 137.1869 "/>
</g>
<path transform="matrix(1,0,0,-1,14.397,181.131)" stroke-width=".3985" stroke-linecap="butt" stroke-miterlimit="10" stroke-linejoin="miter" fill="none" stroke="#000000" d="M 0 0 L 0 161.39636 L 194.27368 161.39636 L 194.27368 0 L 0 0 Z "/>
<text xml:space="preserve" transform="matrix(1 0 -0 1 0 197.629)" font-size="9.9626" font-family="CMSY10" font-style="italic"><tspan y="-6.171" x="28.154">L</tspan></text>
<text xml:space="preserve" transform="matrix(1 0 -0 1 0 197.629)" font-size="6.9738" font-family="CMR7"><tspan y="-4.677" x="35.026">1</tspan></text>
<text xml:space="preserve" transform="matrix(1 0 -0 1 0 197.629)" font-size="9.9626" font-family="CMSY10" font-style="italic"><tspan y="-6.171" x="57.606">L</tspan></text>
<text xml:space="preserve" transform="matrix(1 0 -0 1 0 197.629)" font-size="6.9738" font-family="CMMI7" font-style="italic"><tspan y="-4.677" x="64.477 68.04061 71.97383 75.73271 78.550128 83.473628">cosine</tspan></text>
<text xml:space="preserve" transform="matrix(1 0 -0 1 .0000076293949 197.629)" font-size="9.9626" font-family="CMSY10" font-style="italic"><tspan y="-6.171" x="99.589">L</tspan></text>
<text xml:space="preserve" transform="matrix(1 0 -0 1 .0000076293949 197.629)" font-size="6.9738" font-family="CMMI7" font-style="italic"><tspan y="-4.677" x="106.46 110.59547 114.50777 118.83152">grad</tspan></text>
<text xml:space="preserve" transform="matrix(1 0 -0 1 0 197.629)" font-size="9.9626" font-family="CMSY10" font-style="italic"><tspan y="-6.171" x="137.669">L</tspan></text>
<text xml:space="preserve" transform="matrix(1 0 -0 1 0 197.629)" font-size="6.9738" font-family="CMMI7" font-style="italic"><tspan y="-4.677" x="144.541 148.10462 152.03784 159.10929">comb</tspan></text>
<text xml:space="preserve" transform="matrix(1 0 -0 1 0 197.629)" font-size="9.9626" font-family="CMSY10" font-style="italic"><tspan y="-6.171" x="179.697">L</tspan></text>
<text xml:space="preserve" transform="matrix(1 0 -0 1 0 197.629)" font-size="6.9738" font-family="CMMI7" font-style="italic"><tspan y="-4.677" x="186.56801 190.8011 195.72461">vnl</tspan></text>
<clipPath id="cp4">
<path transform="matrix(1,0,0,-1,14.397,181.131)" d="M 0 0 L 194.27368 0 L 194.27368 161.39636 L 0 161.39636 Z "/>
</clipPath>
<g clip-path="url(#cp4)">
<path transform="matrix(1,0,0,-1,14.397,181.131)" stroke-width="1.19553" stroke-linecap="butt" stroke-miterlimit="10" stroke-linejoin="miter" fill="none" stroke="#00b8eb" d="M 19.42737 54.98851 L 58.2821 142.62027 L 97.13684 85.7521 L 135.99158 153.88974 L 174.84632 143.25463 "/>
<path transform="matrix(1,0,0,-1,14.397,181.131)" stroke-width="1.19553" stroke-linecap="butt" stroke-miterlimit="10" stroke-linejoin="miter" fill="none" stroke="#ffa600" d="M 19.42737 9.31683 L 58.2821 134.69284 L 97.13684 58.8898 L 135.99158 119.2882 L 174.84632 124.52368 "/>
<path transform="matrix(1,0,0,-1,14.397,181.131)" stroke-width="1.19553" stroke-linecap="butt" stroke-miterlimit="10" stroke-linejoin="miter" fill="none" stroke="#800080" d="M 19.42737 42.84842 L 58.2821 132.26108 L 97.13684 71.54912 L 135.99158 131.29059 L 174.84632 118.68506 "/>
<path transform="matrix(1,0,0,-1,14.397,181.131)" stroke-width="1.19553" stroke-linecap="butt" stroke-miterlimit="10" stroke-linejoin="miter" fill="none" stroke="#ff008f" d="M 19.42737 28.5819 L 58.2821 132.90662 L 97.13684 70.99812 L 135.99158 144.0572 L 174.84632 134.13855 "/>
<path transform="matrix(1,0,0,-1,14.397,181.131)" stroke-width="1.19553" stroke-linecap="butt" stroke-miterlimit="10" stroke-linejoin="miter" fill="none" stroke="#e3d10a" d="M 19.42737 24.71718 L 58.2821 123.07755 L 97.13684 49.7907 L 135.99158 115.1807 L 174.84632 106.56483 "/>
</g>
<path transform="matrix(1,0,0,-1,14.397,181.131)" d="M 19.42737 56.78181 L 20.9804 54.09187 L 17.87433 54.09187 Z " fill="#00b8eb"/>
<path transform="matrix(1,0,0,-1,14.397,181.131)" stroke-width="1.19553" stroke-linecap="butt" stroke-miterlimit="10" stroke-linejoin="miter" fill="none" stroke="#00b8eb" d="M 19.42737 56.78181 L 20.9804 54.09187 L 17.87433 54.09187 Z "/>
<path transform="matrix(1,0,0,-1,14.397,181.131)" d="M 58.2821 144.41358 L 59.83513 141.72364 L 56.72906 141.72364 Z " fill="#00b8eb"/>
<path transform="matrix(1,0,0,-1,14.397,181.131)" stroke-width="1.19553" stroke-linecap="butt" stroke-miterlimit="10" stroke-linejoin="miter" fill="none" stroke="#00b8eb" d="M 58.2821 144.41358 L 59.83513 141.72364 L 56.72906 141.72364 Z "/>
<path transform="matrix(1,0,0,-1,14.397,181.131)" d="M 97.13684 87.54541 L 98.68987 84.85545 L 95.5838 84.85545 Z " fill="#00b8eb"/>
<path transform="matrix(1,0,0,-1,14.397,181.131)" stroke-width="1.19553" stroke-linecap="butt" stroke-miterlimit="10" stroke-linejoin="miter" fill="none" stroke="#00b8eb" d="M 97.13684 87.54541 L 98.68987 84.85545 L 95.5838 84.85545 Z "/>
<path transform="matrix(1,0,0,-1,14.397,181.131)" d="M 135.99158 155.68305 L 137.5446 152.9931 L 134.43854 152.9931 Z " fill="#00b8eb"/>
<path transform="matrix(1,0,0,-1,14.397,181.131)" stroke-width="1.19553" stroke-linecap="butt" stroke-miterlimit="10" stroke-linejoin="miter" fill="none" stroke="#00b8eb" d="M 135.99158 155.68305 L 137.5446 152.9931 L 134.43854 152.9931 Z "/>
<path transform="matrix(1,0,0,-1,14.397,181.131)" d="M 174.84632 145.04793 L 176.39934 142.35797 L 173.29328 142.35797 Z " fill="#00b8eb"/>
<path transform="matrix(1,0,0,-1,14.397,181.131)" stroke-width="1.19553" stroke-linecap="butt" stroke-miterlimit="10" stroke-linejoin="miter" fill="none" stroke="#00b8eb" d="M 174.84632 145.04793 L 176.39934 142.35797 L 173.29328 142.35797 Z "/>
<path transform="matrix(1,0,0,-1,14.397,181.131)" stroke-width="1.19553" stroke-linecap="butt" stroke-miterlimit="10" stroke-linejoin="miter" fill="none" stroke="#00b8eb" d=""/>
<path transform="matrix(1,0,0,-1,14.397,181.131)" d="M 18.03258 7.92204 L 20.82213 7.92204 L 20.82213 10.71159 L 18.03258 10.71159 Z " fill="#ffa600"/>
<path transform="matrix(1,0,0,-1,14.397,181.131)" stroke-width="1.19553" stroke-linecap="butt" stroke-miterlimit="10" stroke-linejoin="miter" fill="none" stroke="#ffa600" d="M 18.03258 7.92204 L 20.82213 7.92204 L 20.82213 10.71159 L 18.03258 10.71159 Z "/>
<path transform="matrix(1,0,0,-1,14.397,181.131)" d="M 56.88731 133.29805 L 59.67686 133.29805 L 59.67686 136.0876 L 56.88731 136.0876 Z " fill="#ffa600"/>
<path transform="matrix(1,0,0,-1,14.397,181.131)" stroke-width="1.19553" stroke-linecap="butt" stroke-miterlimit="10" stroke-linejoin="miter" fill="none" stroke="#ffa600" d="M 56.88731 133.29805 L 59.67686 133.29805 L 59.67686 136.0876 L 56.88731 136.0876 Z "/>
<path transform="matrix(1,0,0,-1,14.397,181.131)" d="M 95.74205 57.49501 L 98.5316 57.49501 L 98.5316 60.28456 L 95.74205 60.28456 Z " fill="#ffa600"/>
<path transform="matrix(1,0,0,-1,14.397,181.131)" stroke-width="1.19553" stroke-linecap="butt" stroke-miterlimit="10" stroke-linejoin="miter" fill="none" stroke="#ffa600" d="M 95.74205 57.49501 L 98.5316 57.49501 L 98.5316 60.28456 L 95.74205 60.28456 Z "/>
<path transform="matrix(1,0,0,-1,14.397,181.131)" d="M 134.59679 117.89342 L 137.38634 117.89342 L 137.38634 120.68297 L 134.59679 120.68297 Z " fill="#ffa600"/>
<path transform="matrix(1,0,0,-1,14.397,181.131)" stroke-width="1.19553" stroke-linecap="butt" stroke-miterlimit="10" stroke-linejoin="miter" fill="none" stroke="#ffa600" d="M 134.59679 117.89342 L 137.38634 117.89342 L 137.38634 120.68297 L 134.59679 120.68297 Z "/>
<path transform="matrix(1,0,0,-1,14.397,181.131)" d="M 173.45153 123.1289 L 176.24108 123.1289 L 176.24108 125.91845 L 173.45153 125.91845 Z " fill="#ffa600"/>
<path transform="matrix(1,0,0,-1,14.397,181.131)" stroke-width="1.19553" stroke-linecap="butt" stroke-miterlimit="10" stroke-linejoin="miter" fill="none" stroke="#ffa600" d="M 173.45153 123.1289 L 176.24108 123.1289 L 176.24108 125.91845 L 173.45153 125.91845 Z "/>
<path transform="matrix(1,0,0,-1,14.397,181.131)" stroke-width="1.19553" stroke-linecap="butt" stroke-miterlimit="10" stroke-linejoin="miter" fill="none" stroke="#ffa600" d=""/>
<path transform="matrix(1,0,0,-1,14.397,181.131)" d="M 21.22066 42.84842 C 21.22066 43.83885 20.41779 44.64172 19.42737 44.64172 C 18.43694 44.64172 17.63406 43.83885 17.63406 42.84842 C 17.63406 41.858 18.43694 41.05513 19.42737 41.05513 C 20.41779 41.05513 21.22066 41.858 21.22066 42.84842 Z M 18.15932 41.58038 L 20.6954 44.11647 M 18.15932 44.11647 L 20.6954 41.58038 " fill="#800080"/>
<path transform="matrix(1,0,0,-1,14.397,181.131)" stroke-width="1.19553" stroke-linecap="butt" stroke-miterlimit="10" stroke-linejoin="miter" fill="none" stroke="#800080" d="M 21.22066 42.84842 C 21.22066 43.83885 20.41779 44.64172 19.42737 44.64172 C 18.43694 44.64172 17.63406 43.83885 17.63406 42.84842 C 17.63406 41.858 18.43694 41.05513 19.42737 41.05513 C 20.41779 41.05513 21.22066 41.858 21.22066 42.84842 Z M 18.15932 41.58038 L 20.6954 44.11647 M 18.15932 44.11647 L 20.6954 41.58038 "/>
<path transform="matrix(1,0,0,-1,14.397,181.131)" d="M 60.0754 132.26108 C 60.0754 133.25151 59.27252 134.05438 58.2821 134.05438 C 57.29167 134.05438 56.4888 133.25151 56.4888 132.26108 C 56.4888 131.27066 57.29167 130.46778 58.2821 130.46778 C 59.27252 130.46778 60.0754 131.27066 60.0754 132.26108 Z M 57.01405 130.99304 L 59.55014 133.52913 M 57.01405 133.52913 L 59.55014 130.99304 " fill="#800080"/>
<path transform="matrix(1,0,0,-1,14.397,181.131)" stroke-width="1.19553" stroke-linecap="butt" stroke-miterlimit="10" stroke-linejoin="miter" fill="none" stroke="#800080" d="M 60.0754 132.26108 C 60.0754 133.25151 59.27252 134.05438 58.2821 134.05438 C 57.29167 134.05438 56.4888 133.25151 56.4888 132.26108 C 56.4888 131.27066 57.29167 130.46778 58.2821 130.46778 C 59.27252 130.46778 60.0754 131.27066 60.0754 132.26108 Z M 57.01405 130.99304 L 59.55014 133.52913 M 57.01405 133.52913 L 59.55014 130.99304 "/>
<path transform="matrix(1,0,0,-1,14.397,181.131)" d="M 98.93013 71.54912 C 98.93013 72.53955 98.12726 73.34242 97.13684 73.34242 C 96.14641 73.34242 95.34354 72.53955 95.34354 71.54912 C 95.34354 70.5587 96.14641 69.75581 97.13684 69.75581 C 98.12726 69.75581 98.93013 70.5587 98.93013 71.54912 Z M 95.86879 70.28108 L 98.40488 72.81717 M 95.86879 72.81717 L 98.40488 70.28108 " fill="#800080"/>
<path transform="matrix(1,0,0,-1,14.397,181.131)" stroke-width="1.19553" stroke-linecap="butt" stroke-miterlimit="10" stroke-linejoin="miter" fill="none" stroke="#800080" d="M 98.93013 71.54912 C 98.93013 72.53955 98.12726 73.34242 97.13684 73.34242 C 96.14641 73.34242 95.34354 72.53955 95.34354 71.54912 C 95.34354 70.5587 96.14641 69.75581 97.13684 69.75581 C 98.12726 69.75581 98.93013 70.5587 98.93013 71.54912 Z M 95.86879 70.28108 L 98.40488 72.81717 M 95.86879 72.81717 L 98.40488 70.28108 "/>
<path transform="matrix(1,0,0,-1,14.397,181.131)" d="M 137.78487 131.29059 C 137.78487 132.281 136.982 133.0839 135.99158 133.0839 C 135.00115 133.0839 134.19828 132.281 134.19828 131.29059 C 134.19828 130.30016 135.00115 129.49729 135.99158 129.49729 C 136.982 129.49729 137.78487 130.30016 137.78487 131.29059 Z M 134.72353 130.02254 L 137.25962 132.55863 M 134.72353 132.55863 L 137.25962 130.02254 " fill="#800080"/>
<path transform="matrix(1,0,0,-1,14.397,181.131)" stroke-width="1.19553" stroke-linecap="butt" stroke-miterlimit="10" stroke-linejoin="miter" fill="none" stroke="#800080" d="M 137.78487 131.29059 C 137.78487 132.281 136.982 133.0839 135.99158 133.0839 C 135.00115 133.0839 134.19828 132.281 134.19828 131.29059 C 134.19828 130.30016 135.00115 129.49729 135.99158 129.49729 C 136.982 129.49729 137.78487 130.30016 137.78487 131.29059 Z M 134.72353 130.02254 L 137.25962 132.55863 M 134.72353 132.55863 L 137.25962 130.02254 "/>
<path transform="matrix(1,0,0,-1,14.397,181.131)" d="M 176.6396 118.68506 C 176.6396 119.67549 175.83673 120.47836 174.84632 120.47836 C 173.85588 120.47836 173.05301 119.67549 173.05301 118.68506 C 173.05301 117.69464 173.85588 116.89175 174.84632 116.89175 C 175.83673 116.89175 176.6396 117.69464 176.6396 118.68506 Z M 173.57826 117.41702 L 176.11435 119.95311 M 173.57826 119.95311 L 176.11435 117.41702 " fill="#800080"/>
<path transform="matrix(1,0,0,-1,14.397,181.131)" stroke-width="1.19553" stroke-linecap="butt" stroke-miterlimit="10" stroke-linejoin="miter" fill="none" stroke="#800080" d="M 176.6396 118.68506 C 176.6396 119.67549 175.83673 120.47836 174.84632 120.47836 C 173.85588 120.47836 173.05301 119.67549 173.05301 118.68506 C 173.05301 117.69464 173.85588 116.89175 174.84632 116.89175 C 175.83673 116.89175 176.6396 117.69464 176.6396 118.68506 Z M 173.57826 117.41702 L 176.11435 119.95311 M 173.57826 119.95311 L 176.11435 117.41702 "/>
<path transform="matrix(1,0,0,-1,14.397,181.131)" stroke-width="1.19553" stroke-linecap="butt" stroke-miterlimit="10" stroke-linejoin="miter" fill="none" stroke="#800080" d=""/>
<path transform="matrix(1,0,0,-1,14.397,181.131)" d="M 19.42737 30.47482 L 20.84705 28.5819 L 19.42737 26.68898 L 18.00768 28.5819 Z " fill="#ff008f"/>
<path transform="matrix(1,0,0,-1,14.397,181.131)" stroke-width="1.19553" stroke-linecap="butt" stroke-miterlimit="10" stroke-linejoin="miter" fill="none" stroke="#ff008f" d="M 19.42737 30.47482 L 20.84705 28.5819 L 19.42737 26.68898 L 18.00768 28.5819 Z "/>
<path transform="matrix(1,0,0,-1,14.397,181.131)" d="M 58.2821 134.79953 L 59.70178 132.90662 L 58.2821 131.0137 L 56.86241 132.90662 Z " fill="#ff008f"/>
<path transform="matrix(1,0,0,-1,14.397,181.131)" stroke-width="1.19553" stroke-linecap="butt" stroke-miterlimit="10" stroke-linejoin="miter" fill="none" stroke="#ff008f" d="M 58.2821 134.79953 L 59.70178 132.90662 L 58.2821 131.0137 L 56.86241 132.90662 Z "/>
<path transform="matrix(1,0,0,-1,14.397,181.131)" d="M 97.13684 72.89105 L 98.55652 70.99812 L 97.13684 69.10521 L 95.71715 70.99812 Z " fill="#ff008f"/>
<path transform="matrix(1,0,0,-1,14.397,181.131)" stroke-width="1.19553" stroke-linecap="butt" stroke-miterlimit="10" stroke-linejoin="miter" fill="none" stroke="#ff008f" d="M 97.13684 72.89105 L 98.55652 70.99812 L 97.13684 69.10521 L 95.71715 70.99812 Z "/>
<path transform="matrix(1,0,0,-1,14.397,181.131)" d="M 135.99158 145.95014 L 137.41126 144.0572 L 135.99158 142.16429 L 134.57189 144.0572 Z " fill="#ff008f"/>
<path transform="matrix(1,0,0,-1,14.397,181.131)" stroke-width="1.19553" stroke-linecap="butt" stroke-miterlimit="10" stroke-linejoin="miter" fill="none" stroke="#ff008f" d="M 135.99158 145.95014 L 137.41126 144.0572 L 135.99158 142.16429 L 134.57189 144.0572 Z "/>
<path transform="matrix(1,0,0,-1,14.397,181.131)" d="M 174.84632 136.03148 L 176.26599 134.13855 L 174.84632 132.24564 L 173.42662 134.13855 Z " fill="#ff008f"/>
<path transform="matrix(1,0,0,-1,14.397,181.131)" stroke-width="1.19553" stroke-linecap="butt" stroke-miterlimit="10" stroke-linejoin="miter" fill="none" stroke="#ff008f" d="M 174.84632 136.03148 L 176.26599 134.13855 L 174.84632 132.24564 L 173.42662 134.13855 Z "/>
<path transform="matrix(1,0,0,-1,14.397,181.131)" stroke-width="1.19553" stroke-linecap="butt" stroke-miterlimit="10" stroke-linejoin="miter" fill="none" stroke="#ff008f" d=""/>
<path transform="matrix(1,0,0,-1,14.397,181.131)" stroke-width="1.19553" stroke-linecap="butt" stroke-miterlimit="10" stroke-linejoin="miter" fill="none" stroke="#e3d10a" d="M 19.42737 24.71718 L 19.42737 27.20787 M 19.42737 24.71718 L 21.79616 25.48685 M 19.42737 24.71718 L 20.89134 22.70215 M 19.42737 24.71718 L 17.96338 22.70215 M 19.42737 24.71718 L 17.05856 25.48685 "/>
<path transform="matrix(1,0,0,-1,14.397,181.131)" stroke-width="1.19553" stroke-linecap="butt" stroke-miterlimit="10" stroke-linejoin="miter" fill="none" stroke="#e3d10a" d="M 58.2821 123.07755 L 58.2821 125.56824 M 58.2821 123.07755 L 60.6509 123.84723 M 58.2821 123.07755 L 59.74608 121.06253 M 58.2821 123.07755 L 56.81812 121.06253 M 58.2821 123.07755 L 55.9133 123.84723 "/>
<path transform="matrix(1,0,0,-1,14.397,181.131)" stroke-width="1.19553" stroke-linecap="butt" stroke-miterlimit="10" stroke-linejoin="miter" fill="none" stroke="#e3d10a" d="M 97.13684 49.7907 L 97.13684 52.28139 M 97.13684 49.7907 L 99.50563 50.56038 M 97.13684 49.7907 L 98.60081 47.77568 M 97.13684 49.7907 L 95.67285 47.77568 M 97.13684 49.7907 L 94.76804 50.56038 "/>
<path transform="matrix(1,0,0,-1,14.397,181.131)" stroke-width="1.19553" stroke-linecap="butt" stroke-miterlimit="10" stroke-linejoin="miter" fill="none" stroke="#e3d10a" d="M 135.99158 115.1807 L 135.99158 117.67139 M 135.99158 115.1807 L 138.36037 115.95038 M 135.99158 115.1807 L 137.45555 113.16568 M 135.99158 115.1807 L 134.52759 113.16568 M 135.99158 115.1807 L 133.62277 115.95038 "/>
<path transform="matrix(1,0,0,-1,14.397,181.131)" stroke-width="1.19553" stroke-linecap="butt" stroke-miterlimit="10" stroke-linejoin="miter" fill="none" stroke="#e3d10a" d="M 174.84632 106.56483 L 174.84632 109.05553 M 174.84632 106.56483 L 177.2151 107.3345 M 174.84632 106.56483 L 176.31029 104.5498 M 174.84632 106.56483 L 173.38233 104.5498 M 174.84632 106.56483 L 172.47751 107.3345 "/>
<path transform="matrix(1,0,0,-1,14.397,181.131)" stroke-width="1.19553" stroke-linecap="butt" stroke-miterlimit="10" stroke-linejoin="miter" fill="none" stroke="#e3d10a" d=""/>
<text xml:space="preserve" transform="matrix(1 0 -0 1 0 197.629)" font-size="9.9626" font-family="CMMI10" font-style="italic"><tspan y="-94.657" x="3.321">i</tspan></text>
<text xml:space="preserve" transform="matrix(1 0 -0 1 0 197.629)" font-size="6.9738" font-family="CMMI7" font-style="italic"><tspan y="-93.162998" x="6.7530004">s</tspan></text>
<text xml:space="preserve" transform="matrix(1 0 -0 1 0 197.629)" font-size="9.9626" font-family="CMR10"><tspan y="-187.39" x="57.001 62.540208 70.83905 76.099308 81.080608 84.956058 90.49526 96.03447 100.45786 104.383129 111.62593 118.13151 122.5549 126.46024 129.5088 134.4901 138.39543 146.69428 151.67557 157.21477 161.63817">SmoothnessPerformance</tspan></text>
<path transform="matrix(1,0,0,-1,14.397,181.131)" d="M 114.11826 5.04094 L 188.24646 5.04094 L 188.24646 70.46271 L 114.11826 70.46271 Z " fill="#fffefd"/>
<path transform="matrix(1,0,0,-1,14.397,181.131)" stroke-width=".3985" stroke-linecap="butt" stroke-miterlimit="10" stroke-linejoin="miter" fill="none" stroke="#000000" d="M 114.11826 5.04094 L 188.24646 5.04094 L 188.24646 70.46271 L 114.11826 70.46271 Z "/>
<path transform="matrix(1,0,0,-1,132.10102,118.80499)" stroke-width="1.19553" stroke-linecap="butt" stroke-miterlimit="10" stroke-linejoin="miter" fill="none" stroke="#00b8eb" d="M 0 0 L 8.50412 0 L 17.00826 0 "/>
<path transform="matrix(1,0,0,-1,132.10102,118.80499)" d="M 8.50412 1.79329 L 10.05714 -.89664 L 6.95108 -.89664 Z " fill="#00b8eb"/>
<path transform="matrix(1,0,0,-1,132.10102,118.80499)" stroke-width="1.19553" stroke-linecap="butt" stroke-miterlimit="10" stroke-linejoin="miter" fill="none" stroke="#00b8eb" d="M 8.50412 1.79329 L 10.05714 -.89664 L 6.95108 -.89664 Z "/>
<text xml:space="preserve" transform="matrix(1 0 -0 1 .000015258789 197.629)" font-size="9.9626" font-family="CMR10"><tspan y="-76.167" x="151.699 158.48354 164.02274 169.00403">Pnas</tspan></text>
<path transform="matrix(1,0,0,-1,132.10102,131.092)" stroke-width="1.19553" stroke-linecap="butt" stroke-miterlimit="10" stroke-linejoin="miter" fill="none" stroke="#ffa600" d="M 0 0 L 8.50412 0 L 17.00826 0 "/>
<path transform="matrix(1,0,0,-1,132.10102,131.092)" d="M 7.10933 -1.39478 L 9.89888 -1.39478 L 9.89888 1.39477 L 7.10933 1.39477 Z " fill="#ffa600"/>
<path transform="matrix(1,0,0,-1,132.10102,131.092)" stroke-width="1.19553" stroke-linecap="butt" stroke-miterlimit="10" stroke-linejoin="miter" fill="none" stroke="#ffa600" d="M 7.10933 -1.39478 L 9.89888 -1.39478 L 9.89888 1.39477 L 7.10933 1.39477 Z "/>
<text xml:space="preserve" transform="matrix(1 0 -0 1 .000015258789 197.629)" font-size="9.9626" font-family="CMR10"><tspan y="-63.88" x="151.699 159.17096 166.64292 171.06632">UNet</tspan></text>
<path transform="matrix(1,0,0,-1,132.10102,143.379)" stroke-width="1.19553" stroke-linecap="butt" stroke-miterlimit="10" stroke-linejoin="miter" fill="none" stroke="#800080" d="M 0 0 L 8.50412 0 L 17.00826 0 "/>
<path transform="matrix(1,0,0,-1,132.10102,143.379)" d="M 10.29742 0 C 10.29742 .99042 9.49454 1.79329 8.50412 1.79329 C 7.51369 1.79329 6.71082 .99042 6.71082 0 C 6.71082 -.99042 7.51369 -1.79329 8.50412 -1.79329 C 9.49454 -1.79329 10.29742 -.99042 10.29742 0 Z M 7.23607 -1.26804 L 9.77216 1.26804 M 7.23607 1.26804 L 9.77216 -1.26804 " fill="#800080"/>
<path transform="matrix(1,0,0,-1,132.10102,143.379)" stroke-width="1.19553" stroke-linecap="butt" stroke-miterlimit="10" stroke-linejoin="miter" fill="none" stroke="#800080" d="M 10.29742 0 C 10.29742 .99042 9.49454 1.79329 8.50412 1.79329 C 7.51369 1.79329 6.71082 .99042 6.71082 0 C 6.71082 -.99042 7.51369 -1.79329 8.50412 -1.79329 C 9.49454 -1.79329 10.29742 -.99042 10.29742 0 Z M 7.23607 -1.26804 L 9.77216 1.26804 M 7.23607 1.26804 L 9.77216 -1.26804 "/>
<text xml:space="preserve" transform="matrix(1 0 -0 1 .000015258789 197.629)" font-size="9.9626" font-family="CMR10"><tspan y="-51.593" x="151.699 159.31043 163.73383 169.27303 173.19829 177.62169 185.09365 189.51705">DenseNet</tspan></text>
<path transform="matrix(1,0,0,-1,132.10102,155.666)" stroke-width="1.19553" stroke-linecap="butt" stroke-miterlimit="10" stroke-linejoin="miter" fill="none" stroke="#ff008f" d="M 0 0 L 8.50412 0 L 17.00826 0 "/>
<path transform="matrix(1,0,0,-1,132.10102,155.666)" d="M 8.50412 1.89291 L 9.9238 0 L 8.50412 -1.89291 L 7.08443 0 Z " fill="#ff008f"/>
<path transform="matrix(1,0,0,-1,132.10102,155.666)" stroke-width="1.19553" stroke-linecap="butt" stroke-miterlimit="10" stroke-linejoin="miter" fill="none" stroke="#ff008f" d="M 8.50412 1.89291 L 9.9238 0 L 8.50412 -1.89291 L 7.08443 0 Z "/>
<text xml:space="preserve" transform="matrix(1 0 -0 1 .000015258789 197.629)" font-size="9.9626" font-family="CMR10"><tspan y="-39.306" x="151.699 159.03148 163.45488 167.38014 174.8521 179.2755">ResNet</tspan></text>
<text xml:space="preserve" transform="matrix(1 0 -0 1 .000015258789 197.629)" font-size="6.9738" font-family="CMR7"><tspan y="-37.812" x="183.164 186.32314 190.50742 192.75995">skip</tspan></text>
<path transform="matrix(1,0,0,-1,132.10102,167.954)" stroke-width="1.19553" stroke-linecap="butt" stroke-miterlimit="10" stroke-linejoin="miter" fill="none" stroke="#e3d10a" d="M 0 0 L 8.50412 0 L 17.00826 0 "/>
<path transform="matrix(1,0,0,-1,132.10102,167.954)" stroke-width="1.19553" stroke-linecap="butt" stroke-miterlimit="10" stroke-linejoin="miter" fill="none" stroke="#e3d10a" d="M 8.50412 0 L 8.50412 2.49069 M 8.50412 0 L 10.87292 .76967 M 8.50412 0 L 9.9681 -2.01501 M 8.50412 0 L 7.04013 -2.01501 M 8.50412 0 L 6.13531 .76967 "/>
<text xml:space="preserve" transform="matrix(1 0 -0 1 .000015258789 197.629)" font-size="9.9626" font-family="CMR10"><tspan y="-27.019" x="151.699 159.03148 163.45488 167.38014 174.8521 179.2755">ResNet</tspan></text>
</g>
</svg>
